<svg width="16" height="16" viewBox="0 0 16 16" fill="none" xmlns="http://www.w3.org/2000/svg">
<path d="M14 16H2C0.821618 16 0 15.1784 0 14V2C0 0.821618 0.821618 0 2 0H14C15.1784 0 16 0.821618 16 2V14C16 15.1784 15.1784 16 14 16ZM0.666667 2.66667V4H3.33333L2.03808 0.762044C1.2093 1.00261 0.666667 1.71355 0.666667 2.66667ZM3.33333 0.666667L4.66668 4H6.66635L5.33333 0.666667H3.33333ZM6.66635 0.666667L8 4H10L8.66667 0.666667H6.66633H6.66635ZM10 0.666667L11.3333 4H13.3333L12 0.666667H10ZM15.3333 2.66667C15.3333 1.48828 14.5117 0.666667 13.3333 0.666667L14.6667 4H15.3333V2.66667ZM15.3333 4.66667H0.666684V13.3333C0.666684 14.5117 1.4883 15.3333 2.66668 15.3333H13.3334C14.5117 15.3333 15.3334 14.5117 15.3334 13.3333L15.3333 4.66667ZM5.33333 6.66667L11.3333 10L5.33333 13.3333V6.66668V6.66667Z" fill="#666666"/>
</svg>
