<svg width="16" height="16" viewBox="0 0 16 16" fill="none" xmlns="http://www.w3.org/2000/svg">
<g clip-path="url(#clip0_9_135)">
<path d="M13.3333 16H2.66667C1.17333 16 0 14.8267 0 13.3333V2.66667C0 1.17333 1.17333 0 2.66667 0H13.3333C14.8267 0 16 1.17333 16 2.66667V13.3333C16 14.8267 14.8267 16 13.3333 16ZM2.66667 1.06667C1.76 1.06667 1.06667 1.76 1.06667 2.66667V13.3333C1.06667 14.24 1.76 14.9333 2.66667 14.9333H13.3333C14.24 14.9333 14.9333 14.24 14.9333 13.3333V2.66667C14.9333 1.76 14.24 1.06667 13.3333 1.06667H2.66667Z" fill="#666666"/>
<path d="M4 5.49331C4 5.62639 4.02621 5.75816 4.07714 5.8811C4.12806 6.00404 4.2027 6.11575 4.2968 6.20985C4.39089 6.30395 4.5026 6.37859 4.62555 6.42951C4.74849 6.48044 4.88026 6.50665 5.01333 6.50665C5.14641 6.50665 5.27818 6.48044 5.40112 6.42951C5.52406 6.37859 5.63577 6.30395 5.72987 6.20985C5.82397 6.11575 5.89861 6.00404 5.94953 5.8811C6.00046 5.75816 6.02667 5.62639 6.02667 5.49331C6.02667 5.36024 6.00046 5.22847 5.94953 5.10553C5.89861 4.98258 5.82397 4.87088 5.72987 4.77678C5.63577 4.68268 5.52406 4.60804 5.40112 4.55712C5.27818 4.50619 5.14641 4.47998 5.01333 4.47998C4.88026 4.47998 4.74849 4.50619 4.62555 4.55712C4.5026 4.60804 4.39089 4.68268 4.2968 4.77678C4.2027 4.87088 4.12806 4.98258 4.07714 5.10553C4.02621 5.22847 4 5.36024 4 5.49331Z" fill="#666666"/>
<path d="M3.46671 13.3866L2.50671 12.96L2.72005 12.48C3.84005 9.86665 5.65338 8.53331 8.05338 8.37331C10.08 8.26665 11.5734 7.67998 12.48 6.61331L12.8534 6.18665L13.6534 6.87998L13.28 7.30665C12.16 8.58665 10.4 9.33331 8.10671 9.43998C6.13338 9.54665 4.69338 10.6666 3.73338 12.9066L3.46671 13.3866Z" fill="#666666"/>
</g>
<defs>
<clipPath id="clip0_9_135">
<rect width="16" height="16" fill="white"/>
</clipPath>
</defs>
</svg>
