<svg width="16" height="16" viewBox="0 0 16 16" fill="none" xmlns="http://www.w3.org/2000/svg">
<g clip-path="url(#clip0_9_111)">
<path d="M9 1.49995V1.18589C9 0.5562 8.42344 0.0827627 7.80625 0.204638L0.80625 1.59058C0.3375 1.68276 0 2.0937 0 2.57183V13.4265C0 13.9046 0.339062 14.3171 0.809375 14.4078L7.80937 15.7687C8.42656 15.889 9 15.4156 9 14.7875V14.5H15.5C15.7766 14.5 16 14.2765 16 14V1.99995C16 1.72339 15.7766 1.49995 15.5 1.49995H9ZM7.70156 14.7296L1.20156 13.4656C1.08438 13.4421 1 13.3406 1 13.2203V2.77651C1 2.65776 1.08438 2.55464 1.20156 2.5312L7.70156 1.24526C7.85625 1.21401 8 1.33276 8 1.49058V14.4843C8 14.6406 7.85625 14.7593 7.70156 14.7296ZM14.875 13.5H9V12.125C9 12.0562 9.05625 12 9.125 12H13.875C13.9438 12 14 11.9437 14 11.875V11.125C14 11.0562 13.9438 11 13.875 11H9.125C9.05625 11 9 10.9437 9 10.875V10.375C9 10.3062 9.05625 10.25 9.125 10.25H13.875C13.9438 10.25 14 10.1937 14 10.125V9.37495C14 9.3062 13.9438 9.24995 13.875 9.24995H9.125C9.05625 9.24995 9 9.1937 9 9.12495V2.49995H14.875C14.9438 2.49995 15 2.5562 15 2.62495V13.375C15 13.4437 14.9438 13.5 14.875 13.5Z" fill="#D8D8D8"/>
<path d="M3.43591 9.13281V10.5266C3.43591 10.6797 3.29998 10.7969 3.14841 10.7734L2.67185 10.7016C2.54998 10.6828 2.45935 10.5781 2.45935 10.4547V5.81406C2.45935 5.56719 2.6406 5.35625 2.88435 5.32031L4.09373 5.1375C5.4781 4.925 6.24998 5.4875 6.24998 6.84375C6.24998 7.50312 6.01091 8.03125 5.54841 8.41562C5.10623 8.78281 4.57966 8.93906 3.98279 8.89531L3.69685 8.88281C3.55466 8.87656 3.43591 8.99062 3.43591 9.13281ZM3.43591 6.38438V7.95937L3.89373 7.95781C4.5531 7.95469 4.89998 7.62656 4.89998 6.97031C4.89998 6.32969 4.55623 6.04375 3.9031 6.11094L3.65935 6.13594C3.53279 6.14844 3.43591 6.25625 3.43591 6.38438ZM10.75 5.29531C11.2937 5.39531 11.7953 5.65625 12.1953 6.05625C12.4687 6.32969 12.6781 6.65156 12.814 7.00156H10.75V5.29531ZM10.25 4.25H9.99998C9.86248 4.25 9.74998 4.3625 9.74998 4.5V7.5C9.74998 7.77656 9.97341 8 10.25 8H13.7406C13.8859 8 14 7.87656 13.9906 7.73125C13.8531 5.78594 12.2312 4.25 10.25 4.25Z" fill="#D8D8D8"/>
</g>
<defs>
<clipPath id="clip0_9_111">
<rect width="16" height="16" fill="white"/>
</clipPath>
</defs>
</svg>
