<svg width="16" height="16" viewBox="0 0 16 16" fill="none" xmlns="http://www.w3.org/2000/svg">
<path d="M15.3151 3.74285L8.57849 0.152349C8.39079 0.0520347 8.18118 -0.000301439 7.96835 1.30601e-06C7.75552 0.000304052 7.54607 0.0532362 7.35865 0.154084L0.681626 3.73784C0.47621 3.84808 0.304417 4.0118 0.184428 4.21168C0.0644391 4.41156 0.000717255 4.64016 6.01973e-06 4.87328C-0.000705216 5.10641 0.0616206 5.33539 0.180388 5.536C0.299155 5.73661 0.469946 5.90138 0.674685 6.01287L7.3841 9.66757C7.57368 9.77131 7.78631 9.82568 8.00241 9.82568C8.21851 9.82568 8.43114 9.77131 8.62072 9.66757L15.3249 6.01962C15.53 5.90805 15.7011 5.74304 15.8199 5.54209C15.9388 5.34114 16.001 5.11176 16 4.8783C15.999 4.64483 15.9348 4.416 15.8142 4.21609C15.6936 4.01617 15.5211 3.85264 15.3151 3.74285ZM14.8637 5.17284L8.16012 8.82061C8.11193 8.84693 8.0579 8.86073 8.00299 8.86073C7.94808 8.86073 7.89404 8.84693 7.84585 8.82061L1.13644 5.16609C1.08448 5.13767 1.04116 5.09575 1.01104 5.04476C0.980913 4.99378 0.965107 4.9356 0.965284 4.87638C0.965462 4.81716 0.981617 4.75908 1.01205 4.70827C1.04247 4.65746 1.08605 4.61581 1.13817 4.5877L7.81462 1.00336C7.86236 0.977797 7.91567 0.964419 7.96982 0.964419C8.02398 0.964419 8.07729 0.977797 8.12503 1.00336L14.8616 4.59348C14.9141 4.62143 14.9579 4.66307 14.9886 4.71396C15.0193 4.76486 15.0356 4.82311 15.0358 4.88253C15.036 4.94195 15.0202 5.00032 14.9899 5.05144C14.9596 5.10255 14.916 5.14451 14.8637 5.17284ZM14.8637 11.2499L8.16012 14.8973C8.11188 14.9236 8.05778 14.9375 8.00279 14.9375C7.94781 14.9375 7.89371 14.9236 7.84547 14.8973L1.13644 11.2424C1.08085 11.2121 1.01984 11.193 0.956901 11.1863C0.893957 11.1796 0.830308 11.1854 0.76959 11.2033C0.708872 11.2212 0.652273 11.2509 0.603024 11.2906C0.553776 11.3304 0.512842 11.3795 0.482561 11.4351C0.45228 11.4906 0.433244 11.5517 0.42654 11.6146C0.419836 11.6775 0.425595 11.7412 0.44349 11.8019C0.479628 11.9245 0.563 12.0278 0.675264 12.0889L7.38468 15.7436C7.57426 15.8474 7.78688 15.9017 8.00299 15.9017C8.21909 15.9017 8.43172 15.8474 8.62129 15.7436L15.3249 12.0959C15.433 12.0326 15.5122 11.9297 15.5457 11.809C15.5792 11.6883 15.5644 11.5593 15.5045 11.4493C15.4445 11.3393 15.3441 11.257 15.2245 11.2198C15.1049 11.1825 14.9755 11.1933 14.8637 11.2499Z" fill="#666666"/>
<path d="M14.8638 8.05678L8.16012 11.7047C8.11188 11.7311 8.05778 11.745 8.00279 11.745C7.94781 11.745 7.89371 11.7311 7.84547 11.7047L1.13644 8.04945C1.08085 8.01917 1.01984 8.00014 0.9569 7.99343C0.893956 7.98673 0.830308 7.99249 0.769589 8.01038C0.708871 8.02828 0.652272 8.05796 0.603023 8.09772C0.553775 8.13749 0.512841 8.18657 0.48256 8.24216C0.452279 8.29774 0.433243 8.35875 0.426539 8.4217C0.419835 8.48464 0.425595 8.54829 0.443489 8.60901C0.461383 8.66972 0.491061 8.72632 0.530829 8.77557C0.570597 8.82482 0.619676 8.86575 0.675263 8.89604L7.38468 12.5509C7.57428 12.6546 7.7869 12.7089 8.00299 12.7089C8.21907 12.7089 8.43169 12.6546 8.62129 12.5509L15.3249 8.90355C15.4372 8.8424 15.5206 8.73914 15.5568 8.6165C15.5929 8.49385 15.5789 8.36187 15.5177 8.24958C15.4566 8.13729 15.3533 8.05389 15.2307 8.01774C15.108 7.98158 14.976 7.99562 14.8638 8.05678Z" fill="#666666"/>
</svg>
