<svg width="10" height="10" viewBox="0 0 10 10" fill="none" xmlns="http://www.w3.org/2000/svg">
<path d="M8.85932 5.33781H1.78882V4.65356H8.85932V5.33781Z" fill="#ACACAC"/>
<path d="M4.52579 1.75012C4.59341 1.75018 4.6595 1.77028 4.71571 1.80788C4.77191 1.84547 4.81572 1.89888 4.84159 1.96136C4.86746 2.02384 4.87423 2.09258 4.86105 2.1589C4.84788 2.22523 4.81534 2.28616 4.76756 2.33401L2.10586 4.99571L4.76756 7.65741C4.80117 7.68873 4.82813 7.7265 4.84683 7.76847C4.86553 7.81043 4.87558 7.85574 4.87639 7.90167C4.8772 7.94761 4.86875 7.99324 4.85155 8.03584C4.83434 8.07844 4.80873 8.11714 4.77624 8.14963C4.74375 8.18211 4.70506 8.20772 4.66246 8.22493C4.61986 8.24214 4.57423 8.25059 4.52829 8.24978C4.48235 8.24897 4.43705 8.23891 4.39508 8.22021C4.35312 8.20151 4.31535 8.17455 4.28403 8.14094L1.13879 4.99571L4.28403 1.85048C4.34812 1.7863 4.43509 1.7502 4.52579 1.75012Z" fill="#ACACAC"/>
</svg>
