<svg width="32" height="32" viewBox="0 0 32 32" fill="none" xmlns="http://www.w3.org/2000/svg">
<path d="M24.8654 12.3636C24.464 10.3071 23.3602 8.45401 21.7428 7.12182C20.1255 5.78963 18.0953 5.06116 16 5.06116C13.9046 5.06116 11.8744 5.78963 10.2571 7.12182C8.63976 8.45401 7.53588 10.3071 7.1345 12.3636C5.49498 12.4398 3.95288 13.1642 2.84743 14.3773C1.74199 15.5905 1.16376 17.1932 1.23995 18.8327C1.31614 20.4722 2.04051 22.0143 3.2537 23.1198C4.46689 24.2252 6.06952 24.8034 7.70904 24.7272H8.67632C8.8692 24.7272 9.05419 24.6506 9.19058 24.5142C9.32697 24.3778 9.40359 24.1929 9.40359 24C9.40359 23.8071 9.32697 23.6221 9.19058 23.4857C9.05419 23.3493 8.8692 23.2727 8.67632 23.2727H7.70904C7.08825 23.2775 6.47259 23.1599 5.89723 22.9268C5.32186 22.6936 4.79805 22.3494 4.35571 21.9138C3.91336 21.4782 3.56115 20.9598 3.31917 20.3881C3.07719 19.8164 2.95018 19.2026 2.94541 18.5818C2.94063 17.961 3.05818 17.3453 3.29134 16.77C3.52449 16.1946 3.86869 15.6708 4.30428 15.2284C4.73987 14.7861 5.25833 14.4339 5.83004 14.1919C6.40175 13.9499 7.01552 13.8229 7.63632 13.8181L8.36359 13.9854L8.45814 13.1854C8.68652 11.3539 9.57607 9.66892 10.9596 8.44723C12.3431 7.22554 14.1252 6.55131 15.9709 6.55131C17.8166 6.55131 19.5987 7.22554 20.9822 8.44723C22.3657 9.66892 23.2552 11.3539 23.4836 13.1854L23.629 13.9709L24.3563 13.8181C24.9771 13.8229 25.5909 13.9499 26.1626 14.1919C26.7343 14.4339 27.2528 14.7861 27.6884 15.2284C28.1239 15.6708 28.4681 16.1946 28.7013 16.77C28.9345 17.3453 29.052 17.961 29.0472 18.5818C29.0425 19.2026 28.9154 19.8164 28.6735 20.3881C28.4315 20.9598 28.0793 21.4782 27.6369 21.9138C27.1946 22.3494 26.6708 22.6936 26.0954 22.9268C25.52 23.1599 24.9044 23.2775 24.2836 23.2727H23.1927C22.9998 23.2727 22.8148 23.3493 22.6784 23.4857C22.542 23.6221 22.4654 23.8071 22.4654 24C22.4654 24.1929 22.542 24.3778 22.6784 24.5142C22.8148 24.6506 22.9998 24.7272 23.1927 24.7272H24.2909C25.9304 24.8034 27.533 24.2252 28.7462 23.1198C29.9594 22.0143 30.6838 20.4722 30.76 18.8327C30.8361 17.1932 30.2579 15.5905 29.1525 14.3773C28.047 13.1642 26.5049 12.4398 24.8654 12.3636Z" fill="black"/>
<path d="M16.5164 15.0109C16.4488 14.9427 16.3683 14.8886 16.2797 14.8517C16.1911 14.8148 16.096 14.7958 16 14.7958C15.904 14.7958 15.8089 14.8148 15.7203 14.8517C15.6317 14.8886 15.5512 14.9427 15.4836 15.0109L11.3745 19.12C11.3064 19.1876 11.2523 19.268 11.2154 19.3567C11.1784 19.4453 11.1594 19.5403 11.1594 19.6364C11.1594 19.7324 11.1784 19.8274 11.2154 19.916C11.2523 20.0047 11.3064 20.0851 11.3745 20.1527C11.5108 20.2882 11.6951 20.3642 11.8873 20.3642C12.0794 20.3642 12.2637 20.2882 12.4 20.1527L15.2727 17.28V26.1818C15.2727 26.3747 15.3494 26.5597 15.4857 26.6961C15.6221 26.8325 15.8071 26.9091 16 26.9091C16.1929 26.9091 16.3779 26.8325 16.5143 26.6961C16.6507 26.5597 16.7273 26.3747 16.7273 26.1818V17.28L19.6364 20.1527C19.7043 20.2201 19.7849 20.2735 19.8735 20.3096C19.9621 20.3458 20.057 20.3642 20.1527 20.3636C20.2966 20.363 20.437 20.3198 20.5563 20.2394C20.6755 20.159 20.7683 20.045 20.8227 19.9119C20.8772 19.7788 20.891 19.6325 20.8624 19.4915C20.8337 19.3506 20.7639 19.2213 20.6618 19.12L16.5164 15.0109Z" fill="black"/>
</svg>
