<svg width="10" height="10" viewBox="0 0 10 10" fill="none" xmlns="http://www.w3.org/2000/svg">
<path d="M8.85932 5.33781H1.78882V4.65356H8.85932V5.33781Z" fill="#ACACAC"/>
<path d="M4.52579 1.75024C4.59341 1.7503 4.6595 1.7704 4.71571 1.808C4.77191 1.84559 4.81572 1.899 4.84159 1.96148C4.86746 2.02396 4.87423 2.0927 4.86105 2.15903C4.84788 2.22535 4.81534 2.28629 4.76756 2.33413L2.10586 4.99583L4.76756 7.65753C4.80117 7.68885 4.82813 7.72662 4.84683 7.76859C4.86553 7.81056 4.87558 7.85586 4.87639 7.9018C4.8772 7.94773 4.86875 7.99336 4.85155 8.03596C4.83434 8.07856 4.80873 8.11726 4.77624 8.14975C4.74375 8.18224 4.70506 8.20785 4.66246 8.22505C4.61986 8.24226 4.57423 8.25071 4.52829 8.2499C4.48235 8.24909 4.43705 8.23903 4.39508 8.22034C4.35312 8.20164 4.31535 8.17468 4.28403 8.14106L1.13879 4.99583L4.28403 1.8506C4.34812 1.78642 4.43509 1.75032 4.52579 1.75024Z" fill="#ACACAC"/>
</svg>
